<svg width="160" height="44" viewBox="0 0 160 44" fill="none" xmlns="http://www.w3.org/2000/svg">
<path d="M22.8256 11.7612V19.8209H16.1854V31.8209C16.1854 33.2537 16.4226 34.3085 16.8969 34.9851C17.3712 35.6219 18.2407 35.9403 19.5055 35.9403H22.8256V42.9254C21.877 43.2438 20.6517 43.5025 19.1498 43.7015C17.6478 43.9005 16.3435 44 15.2368 44C11.7586 44 9.07095 43.3632 7.17375 42.0896C5.31609 40.8159 4.38725 38.6468 4.38725 35.5821V19.8209H0V11.7612H4.86155L7.4109 2.20896H16.1854V11.7612H22.8256Z" fill="#8257E5"/>
<path d="M44.4853 11.0448C49.9793 11.0448 54.2875 12.4577 57.4099 15.2836C60.5719 18.0697 62.1529 22.1493 62.1529 27.5224C62.1529 32.8955 60.5719 36.995 57.4099 39.8209C54.2875 42.607 49.9793 44 44.4853 44C38.9914 44 34.6832 42.607 31.5607 39.8209C28.4383 37.0348 26.877 32.9353 26.877 27.5224C26.877 22.1095 28.4383 18.01 31.5607 15.2239C34.6832 12.4378 38.9914 11.0448 44.4853 11.0448ZM44.4853 19.1045C40.6119 19.1045 38.6752 21.3532 38.6752 25.8507V29.2537C38.6752 33.7114 40.6119 35.9403 44.4853 35.9403C48.3983 35.9403 50.3548 33.7114 50.3548 29.2537V25.8507C50.3548 21.3532 48.3983 19.1045 44.4853 19.1045Z" fill="#8257E5"/>
<path d="M66.9191 43.2836V31.403H79.488V43.2836H66.9191Z" fill="#8257E5"/>
<path d="M109.369 43.2836L108.361 38.806C106.069 42.2687 102.749 44 98.401 44C94.1719 44 90.9111 42.607 88.6186 39.8209C86.3262 37.0348 85.18 32.9154 85.18 27.4627C85.18 22.0497 86.3262 17.9701 88.6186 15.2239C90.9111 12.4378 94.1719 11.0448 98.401 11.0448C101.998 11.0448 104.923 12.2587 107.176 14.6866V0H118.974V43.2836H109.369ZM102.077 19.8209C98.6777 19.8209 96.9781 21.8706 96.9781 25.9701V29.1343C96.9781 33.194 98.6777 35.2239 102.077 35.2239C103.816 35.2239 105.12 34.607 105.99 33.3731C106.859 32.1393 107.294 30.5274 107.294 28.5373V26.5672C107.294 24.5771 106.859 22.9652 105.99 21.7313C105.12 20.4577 103.816 19.8209 102.077 19.8209Z" fill="#8257E5"/>
<path d="M142.332 11.0448C147.826 11.0448 152.135 12.4577 155.257 15.2836C158.419 18.0697 160 22.1493 160 27.5224C160 32.8955 158.419 36.995 155.257 39.8209C152.135 42.607 147.826 44 142.332 44C136.838 44 132.53 42.607 129.408 39.8209C126.285 37.0348 124.724 32.9353 124.724 27.5224C124.724 22.1095 126.285 18.01 129.408 15.2239C132.53 12.4378 136.838 11.0448 142.332 11.0448ZM142.332 19.1045C138.459 19.1045 136.522 21.3532 136.522 25.8507V29.2537C136.522 33.7114 138.459 35.9403 142.332 35.9403C146.245 35.9403 148.202 33.7114 148.202 29.2537V25.8507C148.202 21.3532 146.245 19.1045 142.332 19.1045Z" fill="#8257E5"/>
</svg>
