<svg width="18" height="18" viewBox="0 0 18 18" fill="none" xmlns="http://www.w3.org/2000/svg">
<path d="M8.96452 1.85955C10.3768 1.85955 11.7573 2.27834 12.9316 3.06294C14.1058 3.84755 15.021 4.96275 15.5615 6.2675C16.1019 7.57225 16.2433 9.00797 15.9678 10.3931C15.6923 11.7782 15.0122 13.0505 14.0136 14.0491C13.015 15.0478 11.7427 15.7278 10.3576 16.0033C8.97244 16.2789 7.53673 16.1375 6.23197 15.597C4.92722 15.0566 3.81202 14.1413 3.02742 12.9671C2.24281 11.7928 1.82403 10.4123 1.82403 9.00005C1.83134 7.10852 2.58599 5.29656 3.92351 3.95904C5.26103 2.62152 7.073 1.86687 8.96452 1.85955ZM8.96452 0.272778C7.23997 0.279833 5.55616 0.797669 4.12568 1.76091C2.69519 2.72416 1.58215 4.08962 0.927075 5.68493C0.272 7.28024 0.104256 9.03387 0.445021 10.7244C0.785786 12.415 1.61978 13.9667 2.84172 15.1837C4.06366 16.4006 5.61876 17.2283 7.31071 17.5621C9.00265 17.896 10.7556 17.7211 12.3482 17.0595C13.9408 16.3979 15.3017 15.2793 16.2591 13.8449C17.2165 12.4105 17.7275 10.7246 17.7275 9.00005C17.7275 7.85096 17.5006 6.71318 17.0598 5.652C16.619 4.59083 15.9729 3.62715 15.1587 2.81628C14.3445 2.00541 13.3782 1.36331 12.3153 0.926827C11.2523 0.490346 10.1136 0.268077 8.96452 0.272778Z" fill="#4EA8DE"/>
</svg>
