<svg width="72" height="20" viewBox="0 0 72 20" fill="none" xmlns="http://www.w3.org/2000/svg">
<path d="M10.2715 5.346V9.0095H7.28344V14.464C7.28344 15.1153 7.39015 15.5948 7.60359 15.9023C7.81702 16.1918 8.20832 16.3365 8.77747 16.3365H10.2715V19.5115C9.84464 19.6563 9.29327 19.7739 8.6174 19.8643C7.94152 19.9548 7.35458 20 6.85657 20C5.29138 20 4.08193 19.7105 3.22819 19.1316C2.39224 18.5527 1.97426 17.5667 1.97426 16.1737V9.0095H0V5.346H2.1877L3.33491 1.00407H7.28344V5.346H10.2715Z" fill="white"/>
<path d="M20.0184 5.02035C22.4907 5.02035 24.4294 5.6626 25.8345 6.94708C27.2574 8.21348 27.9688 10.0678 27.9688 12.5102C27.9688 14.9525 27.2574 16.8159 25.8345 18.1004C24.4294 19.3668 22.4907 20 20.0184 20C17.5461 20 15.6074 19.3668 14.2023 18.1004C12.7972 16.834 12.0947 14.9706 12.0947 12.5102C12.0947 10.0498 12.7972 8.18634 14.2023 6.91995C15.6074 5.65355 17.5461 5.02035 20.0184 5.02035ZM20.0184 8.68385C18.2754 8.68385 17.4038 9.70601 17.4038 11.7503V13.2971C17.4038 15.3234 18.2754 16.3365 20.0184 16.3365C21.7792 16.3365 22.6596 15.3234 22.6596 13.2971V11.7503C22.6596 9.70601 21.7792 8.68385 20.0184 8.68385Z" fill="white"/>
<path d="M30.1136 19.6744V14.2741H35.7696V19.6744H30.1136Z" fill="white"/>
<path d="M49.2161 19.6744L48.7626 17.6391C47.731 19.213 46.2369 20 44.2805 20C42.3773 20 40.91 19.3668 39.8784 18.1004C38.8468 16.834 38.331 14.9616 38.331 12.483C38.331 10.0226 38.8468 8.16825 39.8784 6.91995C40.91 5.65355 42.3773 5.02035 44.2805 5.02035C45.899 5.02035 47.2152 5.57214 48.229 6.67571V0H53.5382V19.6744H49.2161ZM45.9346 9.0095C44.405 9.0095 43.6402 9.9412 43.6402 11.8046V13.2429C43.6402 15.0882 44.405 16.0109 45.9346 16.0109C46.7172 16.0109 47.3041 15.7304 47.6954 15.1696C48.0867 14.6088 48.2824 13.8761 48.2824 12.9715V12.076C48.2824 11.1714 48.0867 10.4387 47.6954 9.87788C47.3041 9.29896 46.7172 9.0095 45.9346 9.0095Z" fill="white"/>
<path d="M64.0496 5.02035C66.5219 5.02035 68.4606 5.6626 69.8657 6.94708C71.2886 8.21348 72 10.0678 72 12.5102C72 14.9525 71.2886 16.8159 69.8657 18.1004C68.4606 19.3668 66.5219 20 64.0496 20C61.5773 20 59.6386 19.3668 58.2335 18.1004C56.8284 16.834 56.1258 14.9706 56.1258 12.5102C56.1258 10.0498 56.8284 8.18634 58.2335 6.91995C59.6386 5.65355 61.5773 5.02035 64.0496 5.02035ZM64.0496 8.68385C62.3065 8.68385 61.435 9.70601 61.435 11.7503V13.2971C61.435 15.3234 62.3065 16.3365 64.0496 16.3365C65.8104 16.3365 66.6908 15.3234 66.6908 13.2971V11.7503C66.6908 9.70601 65.8104 8.68385 64.0496 8.68385Z" fill="white"/>
</svg>
